<?xml version="1.0" encoding="UTF-8"?>
<svg width="16px" height="16px" viewBox="0 0 16 16" version="1.1" xmlns="http://www.w3.org/2000/svg" xmlns:xlink="http://www.w3.org/1999/xlink">
    <!-- Generator: Sketch 51.2 (57519) - http://www.bohemiancoding.com/sketch -->
    <title>16x16_consent-review copy</title>
    <desc>Created with Sketch.</desc>
    <defs>
        <polygon id="path-1" points="0.977172852 0.990600586 17.048584 0.990600586 17.048584 17.0452881 0.977172852 17.0452881"></polygon>
        <polygon id="path-3" points="0.788368228 0.5301865 15.6025053 0.5301865 15.6025053 15.4597109 0.788368228 15.4597109"></polygon>
    </defs>
    <g id="16x16_consent-review-copy" stroke="none" stroke-width="1" fill="none" fill-rule="evenodd">
        <g id="Group-5-Copy-27" transform="translate(-1.000000, -1.000000)">
            <mask id="mask-2" fill="white">
                <use xlink:href="#path-1"></use>
            </mask>
            <g id="Clip-4"></g>
            <path d="M15.3930207,12.07634 L15.3867342,12.07634 C14.9260253,12.07634 14.5254869,12.3628237 14.4132283,12.774139 C14.1500944,13.7278874 13.276274,14.3933559 12.287501,14.3933559 L5.9031344,14.3933559 C4.68715011,14.3933559 3.69837706,13.4045828 3.69837706,12.1885985 L3.69837706,5.80512999 C3.69837706,4.5891457 4.68715011,3.60037265 5.9031344,3.60037265 L12.287501,3.60037265 C13.276274,3.60037265 14.1500944,4.26584116 14.4132283,5.21869148 C14.5254869,5.6300067 14.9260253,5.91738851 15.3930207,5.91738851 C15.6938735,5.91738851 15.9713766,5.77908602 16.1536845,5.53930182 C16.3395846,5.29502727 16.397959,4.98519376 16.3153367,4.68883126 C15.8160108,2.88551038 14.1590751,1.62462268 12.287501,1.62462268 L5.9031344,1.62462268 C3.59779342,1.62462268 1.72262709,3.49978901 1.72262709,5.80512999 L1.72262709,12.1885985 C1.72262709,14.4930414 3.59779342,16.3682078 5.9031344,16.3682078 L12.287501,16.3682078 C14.1590751,16.3682078 15.8160108,15.1082181 16.3153367,13.3039992 C16.397959,13.0076367 16.3395846,12.6978032 16.1536845,12.4535286 C15.9713766,12.2137444 15.6938735,12.07634 15.3930207,12.07634" id="Fill-3" fill="#FF7E74" mask="url(#mask-2)"></path>
        </g>
        <g id="Group-5-Copy-12" transform="translate(-0.160889, 0.000000)">
            <mask id="mask-4" fill="white">
                <use xlink:href="#path-3"></use>
            </mask>
            <g id="Clip-4"></g>
            <g id="Group-15" transform="translate(4.885809, 4.293310)" fill="#FF7E74" fill-rule="nonzero">
                <path d="M0.300580904,5.19423328 L1.8845001,6.76555724 C1.8375047,6.81045221 1.77484416,6.83462642 1.70870248,6.83462642 L0.493784235,6.83289969 C0.349316879,6.83289969 0.232698653,6.71720881 0.232698653,6.57389025 L0.232698653,5.36690624 C0.23287271,5.30474397 0.25706664,5.24085498 0.300580904,5.19423328 Z" id="Shape"></path>
                <path d="M1.45488551,4.11697526 L5.16228393,0.396110576 C5.56379622,-0.00686011087 6.21595853,-0.0080423773 6.61892921,0.39346991 C6.62059656,0.395131219 6.6222582,0.396798238 6.62391412,0.398470939 C7.02757863,0.806227158 7.0262266,1.46341591 6.62088777,1.86950777 L6.28177213,2.20925341 C6.26804238,2.22473493 6.25377339,2.23990574 6.23896522,2.25474141 L2.52918275,5.97141585 L1.07296296,4.5022089 L1.45584143,4.11793971 Z" id="Combined-Shape"></path>
            </g>
        </g>
    </g>
</svg>