<?xml version="1.0" encoding="UTF-8"?>
<svg width="16px" height="16px" viewBox="0 0 16 16" version="1.1" xmlns="http://www.w3.org/2000/svg" xmlns:xlink="http://www.w3.org/1999/xlink">
    <!-- Generator: Sketch 51.2 (57519) - http://www.bohemiancoding.com/sketch -->
    <title>16x16_consent-readonly-chrome</title>
    <desc>Created with Sketch.</desc>
    <defs>
        <polygon id="path-1" points="0.977172852 0.990600586 17.048584 0.990600586 17.048584 17.0452881 0.977172852 17.0452881"></polygon>
    </defs>
    <g id="16x16_consent-readonly-chrome" stroke="none" stroke-width="1" fill="none" fill-rule="evenodd">
        <g id="Group-5-Copy-27" transform="translate(-1.000000, -1.000000)">
            <mask id="mask-2" fill="white">
                <use xlink:href="#path-1"></use>
            </mask>
            <g id="Clip-4"></g>
            <path d="M15.3930207,12.07634 L15.3867342,12.07634 C14.9260253,12.07634 14.5254869,12.3628237 14.4132283,12.774139 C14.1500944,13.7278874 13.276274,14.3933559 12.287501,14.3933559 L5.9031344,14.3933559 C4.68715011,14.3933559 3.69837706,13.4045828 3.69837706,12.1885985 L3.69837706,5.80512999 C3.69837706,4.5891457 4.68715011,3.60037265 5.9031344,3.60037265 L12.287501,3.60037265 C13.276274,3.60037265 14.1500944,4.26584116 14.4132283,5.21869148 C14.5254869,5.6300067 14.9260253,5.91738851 15.3930207,5.91738851 C15.6938735,5.91738851 15.9713766,5.77908602 16.1536845,5.53930182 C16.3395846,5.29502727 16.397959,4.98519376 16.3153367,4.68883126 C15.8160108,2.88551038 14.1590751,1.62462268 12.287501,1.62462268 L5.9031344,1.62462268 C3.59779342,1.62462268 1.72262709,3.49978901 1.72262709,5.80512999 L1.72262709,12.1885985 C1.72262709,14.4930414 3.59779342,16.3682078 5.9031344,16.3682078 L12.287501,16.3682078 C14.1590751,16.3682078 15.8160108,15.1082181 16.3153367,13.3039992 C16.397959,13.0076367 16.3395846,12.6978032 16.1536845,12.4535286 C15.9713766,12.2137444 15.6938735,12.07634 15.3930207,12.07634" id="Fill-3" fill="#B0B0B0" mask="url(#mask-2)"></path>
            <path d="M12.0288708,6.34786914 L12.0288303,6.3479106 L8.74376893,9.63297197 L7.28094226,8.1701453 L7.28090172,8.17010384 C6.9311348,7.81237636 6.35759728,7.80592306 5.99986981,8.15568997 C5.99744056,8.15806516 5.9950247,8.16045399 5.99262233,8.16285636 L5.99262233,8.16285636 C5.63885274,8.51662595 5.63885274,9.09019978 5.99262233,9.44396936 C5.9950247,9.44637173 5.99744056,9.44876056 5.99986981,9.45113575 L5.99991127,9.45117629 L8.10325344,11.5545185 L8.74376893,12.2096118 L9.38428443,11.5545185 L13.3098613,7.62894159 L13.3099028,7.62890105 C13.6676302,7.27913413 13.6740835,6.70559661 13.3243166,6.34786914 C13.3219414,6.34543989 13.3195526,6.34302403 13.3171502,6.34062166 L13.3171502,6.34062166 C12.9633806,5.98685208 12.3898068,5.98685208 12.0360372,6.34062166 C12.0336349,6.34302403 12.031246,6.34543989 12.0288708,6.34786914 Z" id="Shape-Copy-11" fill="#B0B0B0" fill-rule="nonzero" mask="url(#mask-2)"></path>
        </g>
    </g>
</svg>