<?xml version="1.0" encoding="UTF-8"?>
<svg width="16px" height="16px" viewBox="0 0 16 16" version="1.1" xmlns="http://www.w3.org/2000/svg" xmlns:xlink="http://www.w3.org/1999/xlink">
    <!-- Generator: Sketch 51.2 (57519) - http://www.bohemiancoding.com/sketch -->
    <title>16x16_consent-scanning copy</title>
    <desc>Created with Sketch.</desc>
    <defs>
        <polygon id="path-1" points="0.977172852 0.990600586 17.048584 0.990600586 17.048584 17.0452881 0.977172852 17.0452881"></polygon>
    </defs>
    <g id="16x16_consent-scanning-copy" stroke="none" stroke-width="1" fill="none" fill-rule="evenodd">
        <g id="Group-5-Copy-27" transform="translate(-1.000000, -1.000000)">
            <mask id="mask-2" fill="white">
                <use xlink:href="#path-1"></use>
            </mask>
            <g id="Clip-4"></g>
            <path d="M9,16.3682078 L9,14.3933559 L12.287501,14.3933559 C13.276274,14.3933559 14.1500944,13.7278874 14.4132283,12.774139 C14.5254869,12.3628237 14.9260253,12.07634 15.3867342,12.07634 L15.3930207,12.07634 C15.6938735,12.07634 15.9713766,12.2137444 16.1536845,12.4535286 C16.3395846,12.6978032 16.397959,13.0076367 16.3153367,13.3039992 C15.8160108,15.1082181 14.1590751,16.3682078 12.287501,16.3682078 L9,16.3682078 Z M9,1.62462268 L12.287501,1.62462268 C14.1590751,1.62462268 15.8160108,2.88551038 16.3153367,4.68883126 C16.397959,4.98519376 16.3395846,5.29502727 16.1536845,5.53930182 C15.9713766,5.77908602 15.6938735,5.91738851 15.3930207,5.91738851 C14.9260253,5.91738851 14.5254869,5.6300067 14.4132283,5.21869148 C14.1500944,4.26584116 13.276274,3.60037265 12.287501,3.60037265 L9,3.60037265 L9,1.62462268 Z" id="Combined-Shape" fill="#00ADEF" mask="url(#mask-2)"></path>
            <path d="M1.66088385,16.3682078 L1.66088385,14.3933559 L4.94838485,14.3933559 C5.9371579,14.3933559 6.81097823,13.7278874 7.0741122,12.774139 C7.18637072,12.3628237 7.58690912,12.07634 8.04761809,12.07634 L8.05390457,12.07634 C8.3547574,12.07634 8.63226047,12.2137444 8.81456831,12.4535286 C9.00046842,12.6978032 9.05884285,13.0076367 8.97622057,13.3039992 C8.47689467,15.1082181 6.81995891,16.3682078 4.94838485,16.3682078 L1.66088385,16.3682078 Z M1.66088385,1.62462268 L4.94838485,1.62462268 C6.81995891,1.62462268 8.47689467,2.88551038 8.97622057,4.68883126 C9.05884285,4.98519376 9.00046842,5.29502727 8.81456831,5.53930182 C8.63226047,5.77908602 8.3547574,5.91738851 8.05390457,5.91738851 C7.58690912,5.91738851 7.18637072,5.6300067 7.0741122,5.21869148 C6.81097823,4.26584116 5.9371579,3.60037265 4.94838485,3.60037265 L1.66088385,3.60037265 L1.66088385,1.62462268 Z" id="Combined-Shape-Copy" fill="#00ADEF" mask="url(#mask-2)" transform="translate(5.336881, 8.996415) scale(-1, 1) translate(-5.336881, -8.996415) "></path>
        </g>
        <rect id="Rectangle-16" fill="#00ADEF" x="3.20608521" y="7.025" width="9.58782959" height="1.95" rx="0.975"></rect>
    </g>
</svg>