<?xml version="1.0" encoding="UTF-8"?>
<svg width="19px" height="19px" viewBox="0 0 19 19" version="1.1" xmlns="http://www.w3.org/2000/svg" xmlns:xlink="http://www.w3.org/1999/xlink">
    <!-- Generator: Sketch 51.2 (57519) - http://www.bohemiancoding.com/sketch -->
    <title>19x19_consent-edited-cliqz-light copy</title>
    <desc>Created with Sketch.</desc>
    <defs>
        <polygon id="path-1" points="0.23770081 0.571332606 16.2015164 0.571332606 16.2015164 16.6594904 0.23770081 16.6594904"></polygon>
    </defs>
    <g id="19x19_consent-edited-cliqz-light-copy" stroke="none" stroke-width="1" fill="none" fill-rule="evenodd">
        <g id="Group-5-Copy-10" transform="translate(1.221191, 0.875488)">
            <mask id="mask-2" fill="white">
                <use xlink:href="#path-1"></use>
            </mask>
            <g id="Clip-4"></g>
            <path d="M15.1550677,11.976131 L15.1482078,11.976131 C14.6454743,11.976131 14.2084,12.288747 14.0859016,12.7375811 C13.7987653,13.7783277 12.8452376,14.5044983 11.7662716,14.5044983 L4.79954177,14.5044983 C3.47263894,14.5044983 2.39367291,13.4255322 2.39367291,12.0986294 L2.39367291,5.13287957 C2.39367291,3.80597674 3.47263894,2.72701071 4.79954177,2.72701071 L11.7662716,2.72701071 C12.8452376,2.72701071 13.7987653,3.45318131 14.0859016,4.49294785 C14.2084,4.94178204 14.6454743,5.25537798 15.1550677,5.25537798 C15.4833635,5.25537798 15.7861796,5.10445994 15.985117,4.84280332 C16.1879744,4.57624677 16.2516736,4.23815115 16.1615147,3.91475533 C15.6166418,1.9469408 13.8085652,0.57103861 11.7662716,0.57103861 L4.79954177,0.57103861 C2.28391433,0.57103861 0.23770081,2.61725213 0.23770081,5.13287957 L0.23770081,12.0986294 C0.23770081,14.6132769 2.28391433,16.6594904 4.79954177,16.6594904 L11.7662716,16.6594904 C13.8085652,16.6594904 15.6166418,15.2845682 16.1615147,13.3157737 C16.2516736,12.9923779 16.1879744,12.6542822 15.985117,12.3877257 C15.7861796,12.1260691 15.4833635,11.976131 15.1550677,11.976131" id="Fill-3" fill="#00ADEF" mask="url(#mask-2)"></path>
            <path d="M11.48405,5.72512579 L11.4840057,5.72517104 L7.89929067,9.30988609 L6.30302923,7.71362465 L6.30298499,7.71357941 C5.92131336,7.32322108 5.29545942,7.31617912 4.90510109,7.69785076 C4.90245026,7.7004426 4.89981403,7.70304934 4.89719253,7.70567084 L4.89719253,7.70567084 C4.51115311,8.09171025 4.51115311,8.71760381 4.89719253,9.10364322 C4.89981403,9.10626473 4.90245026,9.10887146 4.90510109,9.11146331 L4.90514634,9.11150755 L7.20034923,11.4067104 L7.89929067,12.1215595 L8.59823212,11.4067104 L12.8818886,7.12305393 L12.8819339,7.12300969 C13.2722922,6.74133806 13.2793341,6.11548412 12.8976625,5.72512579 C12.8950707,5.72247496 12.8924639,5.71983873 12.8898424,5.71721722 L12.8898424,5.71721722 C12.503803,5.33117781 11.8779095,5.33117781 11.4918701,5.71721722 C11.4892485,5.71983873 11.4866418,5.72247496 11.48405,5.72512579 Z" id="Shape-Copy-11" fill="#00ADEF" fill-rule="nonzero" mask="url(#mask-2)"></path>
        </g>
    </g>
</svg>