<?xml version="1.0" encoding="UTF-8"?>
<svg width="19px" height="19px" viewBox="0 0 19 19" version="1.1" xmlns="http://www.w3.org/2000/svg" xmlns:xlink="http://www.w3.org/1999/xlink">
    <!-- Generator: Sketch 51.2 (57519) - http://www.bohemiancoding.com/sketch -->
    <title>19x19_consent-review-cliqz-light copy</title>
    <desc>Created with Sketch.</desc>
    <defs>
        <polygon id="path-1" points="0.23770081 0.571332606 16.2015164 0.571332606 16.2015164 16.6594904 0.23770081 16.6594904"></polygon>
    </defs>
    <g id="19x19_consent-review-cliqz-light-copy" stroke="none" stroke-width="1" fill="none" fill-rule="evenodd">
        <g id="Group-5-Copy-10" transform="translate(1.221191, 0.875488)">
            <mask id="mask-2" fill="white">
                <use xlink:href="#path-1"></use>
            </mask>
            <g id="Clip-4"></g>
            <path d="M15.1550677,11.976131 L15.1482078,11.976131 C14.6454743,11.976131 14.2084,12.288747 14.0859016,12.7375811 C13.7987653,13.7783277 12.8452376,14.5044983 11.7662716,14.5044983 L4.79954177,14.5044983 C3.47263894,14.5044983 2.39367291,13.4255322 2.39367291,12.0986294 L2.39367291,5.13287957 C2.39367291,3.80597674 3.47263894,2.72701071 4.79954177,2.72701071 L11.7662716,2.72701071 C12.8452376,2.72701071 13.7987653,3.45318131 14.0859016,4.49294785 C14.2084,4.94178204 14.6454743,5.25537798 15.1550677,5.25537798 C15.4833635,5.25537798 15.7861796,5.10445994 15.985117,4.84280332 C16.1879744,4.57624677 16.2516736,4.23815115 16.1615147,3.91475533 C15.6166418,1.9469408 13.8085652,0.57103861 11.7662716,0.57103861 L4.79954177,0.57103861 C2.28391433,0.57103861 0.23770081,2.61725213 0.23770081,5.13287957 L0.23770081,12.0986294 C0.23770081,14.6132769 2.28391433,16.6594904 4.79954177,16.6594904 L11.7662716,16.6594904 C13.8085652,16.6594904 15.6166418,15.2845682 16.1615147,13.3157737 C16.2516736,12.9923779 16.1879744,12.6542822 15.985117,12.3877257 C15.7861796,12.1260691 15.4833635,11.976131 15.1550677,11.976131" id="Fill-3" fill="#FF7E74" mask="url(#mask-2)"></path>
        </g>
        <g id="Group-19-Copy" transform="translate(5.381702, 5.513779)" fill="#FF7E74" fill-rule="nonzero">
            <path d="M0.716894236,5.68595576 L2.44417958,7.3824965 C2.39293045,7.43096909 2.32459829,7.45706972 2.25246989,7.45706972 L0.927585085,7.45520539 C0.770041477,7.45520539 0.642867721,7.33029524 0.642867721,7.17555581 L0.642867721,5.87238881 C0.643057533,5.80527291 0.669441342,5.73629269 0.716894236,5.68595576 Z" id="Shape"></path>
            <path d="M1.97672149,4.52389376 L1.97567904,4.52285245 L6.01867297,0.505451311 C6.45992772,0.0669897747 7.17273847,0.0681409027 7.61257476,0.508025325 C8.0502535,0.945751952 8.05021467,1.65540821 7.61248805,2.09308695 C7.61142991,2.09414497 7.61036965,2.09520088 7.60930728,2.09625465 L7.23922718,2.46334191 C7.22532532,2.4788693 7.21091504,2.49410229 7.19599634,2.50901936 C7.1949382,2.51007738 7.19387794,2.51113329 7.19281557,2.51218706 L3.14721474,6.52507101 L1.55918733,4.93878486 L1.97672149,4.52389376 Z" id="Combined-Shape"></path>
        </g>
    </g>
</svg>