<?xml version="1.0" encoding="UTF-8"?>
<svg width="19px" height="19px" viewBox="0 0 19 19" version="1.1" xmlns="http://www.w3.org/2000/svg" xmlns:xlink="http://www.w3.org/1999/xlink">
    <!-- Generator: Sketch 51.2 (57519) - http://www.bohemiancoding.com/sketch -->
    <title>19x19_consent-scanning-cliqz-light copy</title>
    <desc>Created with Sketch.</desc>
    <defs>
        <polygon id="path-1" points="0.311056593 0.330241218 17.5882699 0.330241218 17.5882699 17.8413156 0.311056593 17.8413156"></polygon>
    </defs>
    <g id="19x19_consent-scanning-cliqz-light-copy" stroke="none" stroke-width="1" fill="none" fill-rule="evenodd">
        <g id="Group-Copy" transform="translate(0.564575, 0.433105)">
            <g id="Group-5-Copy-27">
                <mask id="mask-2" fill="white">
                    <use xlink:href="#path-1"></use>
                </mask>
                <g id="Clip-4"></g>
                <path d="M8.93581861,17.1028145 L8.93581861,14.9488157 L12.4699735,14.9488157 C13.532932,14.9488157 14.4723131,14.2229798 14.7551894,13.1827129 C14.8758705,12.7340856 15.3064604,12.4216137 15.8017353,12.4216137 L15.8084934,12.4216137 C16.1319186,12.4216137 16.4302421,12.5714827 16.6262281,12.8330187 C16.8260759,13.0994524 16.88883,13.4373922 16.8000088,13.7606389 C16.2632196,15.728526 14.4819676,17.1028145 12.4699735,17.1028145 L8.93581861,17.1028145 Z M8.93581861,1.02177807 L12.4699735,1.02177807 C14.4819676,1.02177807 16.2632196,2.3970461 16.8000088,4.36395364 C16.88883,4.6872004 16.8260759,5.02514019 16.6262281,5.29157388 C16.4302421,5.5531099 16.1319186,5.70395839 15.8084934,5.70395839 C15.3064604,5.70395839 14.8758705,5.39050698 14.7551894,4.94187966 C14.4723131,3.90259236 13.532932,3.17675646 12.4699735,3.17675646 L8.93581861,3.17675646 L8.93581861,1.02177807 Z" id="Combined-Shape" fill="#00ADEF" mask="url(#mask-2)"></path>
                <path d="M1.04606491,17.1028145 L1.04606491,14.9488157 L4.58021979,14.9488157 C5.64317828,14.9488157 6.5825594,14.2229798 6.86543573,13.1827129 C6.98611676,12.7340856 7.41670667,12.4216137 7.9119816,12.4216137 L7.91873974,12.4216137 C8.2421649,12.4216137 8.5404884,12.5714827 8.73647439,12.8330187 C8.93632217,13.0994524 8.9990763,13.4373922 8.91025507,13.7606389 C8.37346585,15.728526 6.59221389,17.1028145 4.58021979,17.1028145 L1.04606491,17.1028145 Z M1.04606491,1.02177807 L4.58021979,1.02177807 C6.59221389,1.02177807 8.37346585,2.3970461 8.91025507,4.36395364 C8.9990763,4.6872004 8.93632217,5.02514019 8.73647439,5.29157388 C8.5404884,5.5531099 8.2421649,5.70395839 7.91873974,5.70395839 C7.41670667,5.70395839 6.98611676,5.39050698 6.86543573,4.94187966 C6.5825594,3.90259236 5.64317828,3.17675646 4.58021979,3.17675646 L1.04606491,3.17675646 L1.04606491,1.02177807 Z" id="Combined-Shape-Copy" fill="#00ADEF" mask="url(#mask-2)" transform="translate(4.997864, 9.062296) scale(-1, 1) translate(-4.997864, -9.062296) "></path>
            </g>
            <rect id="Rectangle-16" fill="#00ADEF" x="3.78222706" y="7.88978009" width="10.3071831" height="2.08409286" rx="1.04204643"></rect>
        </g>
    </g>
</svg>