<?xml version="1.0" encoding="UTF-8"?>
<svg width="24px" height="24px" viewBox="0 0 24 24" version="1.1" xmlns="http://www.w3.org/2000/svg" xmlns:xlink="http://www.w3.org/1999/xlink">
    <!-- Generator: Sketch 51.2 (57519) - http://www.bohemiancoding.com/sketch -->
    <title>24x24_consent-review copy</title>
    <desc>Created with Sketch.</desc>
    <defs>
        <polygon id="path-1" points="0.3224656 0.77507145 21.9790236 0.77507145 21.9790236 22.6003124 0.3224656 22.6003124"></polygon>
    </defs>
    <g id="24x24_consent-review-copy" stroke="none" stroke-width="1" fill="none" fill-rule="evenodd">
        <g id="Group-5-Copy-9" transform="translate(0.776173, 0.292601)">
            <mask id="mask-2" fill="white">
                <use xlink:href="#path-1"></use>
            </mask>
            <g id="Clip-4"></g>
            <path d="M20.5594083,16.2468536 L20.5501022,16.2468536 C19.8680925,16.2468536 19.2751562,16.6709493 19.1089745,17.2798391 C18.7194446,18.6917188 17.4258862,19.6768439 15.9621578,19.6768439 L6.51107212,19.6768439 C4.71099194,19.6768439 3.24726353,18.2131155 3.24726353,16.4130353 L3.24726353,6.96327913 C3.24726353,5.16319896 4.71099194,3.69947054 6.51107212,3.69947054 L15.9621578,3.69947054 C17.4258862,3.69947054 18.7194446,4.68459566 19.1089745,6.09514593 C19.2751562,6.70403568 19.8680925,7.12946083 20.5594083,7.12946083 C21.0047753,7.12946083 21.4155765,6.92472498 21.6854555,6.56976087 C21.9606524,6.20814949 22.0470669,5.749488 21.9247572,5.31076831 C21.185581,2.64122547 18.7327391,0.774672614 15.9621578,0.774672614 L6.51107212,0.774672614 C3.09836472,0.774672614 0.3224656,3.55057174 0.3224656,6.96327913 L0.3224656,16.4130353 C0.3224656,19.8244133 3.09836472,22.6003124 6.51107212,22.6003124 L15.9621578,22.6003124 C18.7327391,22.6003124 21.185581,20.735089 21.9247572,18.0642167 C22.0470669,17.625497 21.9606524,17.1668355 21.6854555,16.8052242 C21.4155765,16.45026 21.0047753,16.2468536 20.5594083,16.2468536" id="Fill-3" fill="#FF7E74" mask="url(#mask-2)"></path>
        </g>
        <g id="Group-19" transform="translate(6.705129, 6.612549)" fill="#FF7E74" fill-rule="nonzero">
            <path d="M0.946077669,7.50369511 L3.2255577,9.7426018 C3.15792477,9.80657057 3.06774754,9.84101528 2.97256046,9.84101528 L1.22412413,9.83855495 C1.01621552,9.83855495 0.848385668,9.67371237 0.848385668,9.46950439 L0.848385668,7.74972881 C0.84863616,7.66115668 0.883454591,7.57012421 0.946077669,7.50369511 Z" id="Shape"></path>
            <path d="M2.60865825,5.97013429 L2.60728254,5.96876009 L7.94277845,0.667038698 C8.52509763,0.0884056905 9.46578637,0.0899248218 10.0462336,0.670435597 C10.6238336,1.24809875 10.6237824,2.18462454 10.0461192,2.7622245 C10.0447228,2.76362076 10.0433236,2.76501423 10.0419216,2.76640489 L9.55353082,3.25084601 C9.53518468,3.27133734 9.51616758,3.29144016 9.49647954,3.31112606 C9.49508312,3.31252232 9.49368391,3.31391579 9.49228191,3.31530644 L4.15334569,8.61106654 L2.05764288,6.51766165 L2.60865825,5.97013429 Z" id="Combined-Shape"></path>
        </g>
    </g>
</svg>