<?xml version="1.0" encoding="UTF-8"?>
<svg width="24px" height="24px" viewBox="0 0 24 24" version="1.1" xmlns="http://www.w3.org/2000/svg" xmlns:xlink="http://www.w3.org/1999/xlink">
    <!-- Generator: Sketch 51.2 (57519) - http://www.bohemiancoding.com/sketch -->
    <title>24x24_consent-scanning copy</title>
    <desc>Created with Sketch.</desc>
    <defs>
        <polygon id="path-1" points="0.424005636 0.443682444 23.9748192 0.443682444 23.9748192 23.9699894 0.424005636 23.9699894"></polygon>
    </defs>
    <g id="24x24_consent-scanning-copy" stroke="none" stroke-width="1" fill="none" fill-rule="evenodd">
        <g id="Group" transform="translate(-0.173828, -0.173828)">
            <g id="Group-5-Copy-27">
                <mask id="mask-2" fill="white">
                    <use xlink:href="#path-1"></use>
                </mask>
                <g id="Clip-4"></g>
                <path d="M12.1805406,22.9778057 L12.1805406,20.0838863 L16.997997,20.0838863 C18.4469307,20.0838863 19.7274144,19.1087183 20.1130071,17.7111092 C20.2775091,17.1083739 20.8644523,16.6885647 21.5395686,16.6885647 L21.5487807,16.6885647 C21.9896461,16.6885647 22.3962951,16.8899152 22.6634463,17.2412915 C22.9358617,17.5992479 23.0214027,18.0532734 22.9003292,18.4875587 C22.1686243,21.1314351 19.7405746,22.9778057 16.997997,22.9778057 L12.1805406,22.9778057 Z M12.1805406,1.37276925 L16.997997,1.37276925 C19.7405746,1.37276925 22.1686243,3.22045587 22.9003292,5.86301621 C23.0214027,6.29730153 22.9358617,6.75132709 22.6634463,7.10928347 C22.3962951,7.46065977 21.9896461,7.66332625 21.5487807,7.66332625 C20.8644523,7.66332625 20.2775091,7.24220109 20.1130071,6.63946572 C19.7274144,5.24317263 18.4469307,4.26800469 16.997997,4.26800469 L12.1805406,4.26800469 L12.1805406,1.37276925 Z" id="Combined-Shape" fill="#00ADEF" mask="url(#mask-2)"></path>
                <path d="M1.42590585,22.9778057 L1.42590585,20.0838863 L6.24336229,20.0838863 C7.69229602,20.0838863 8.97277969,19.1087183 9.35837241,17.7111092 C9.52287443,17.1083739 10.1098176,16.6885647 10.7849339,16.6885647 L10.794146,16.6885647 C11.2350114,16.6885647 11.6416604,16.8899152 11.9088116,17.2412915 C12.181227,17.5992479 12.266768,18.0532734 12.1456945,18.4875587 C11.4139896,21.1314351 8.98593986,22.9778057 6.24336229,22.9778057 L1.42590585,22.9778057 Z M1.42590585,1.37276925 L6.24336229,1.37276925 C8.98593986,1.37276925 11.4139896,3.22045587 12.1456945,5.86301621 C12.266768,6.29730153 12.181227,6.75132709 11.9088116,7.10928347 C11.6416604,7.46065977 11.2350114,7.66332625 10.794146,7.66332625 C10.1098176,7.66332625 9.52287443,7.24220109 9.35837241,6.63946572 C8.97277969,5.24317263 7.69229602,4.26800469 6.24336229,4.26800469 L1.42590585,4.26800469 L1.42590585,1.37276925 Z" id="Combined-Shape-Copy" fill="#00ADEF" mask="url(#mask-2)" transform="translate(6.812659, 12.175287) scale(-1, 1) translate(-6.812659, -12.175287) "></path>
            </g>
            <rect id="Rectangle-16" fill="#00ADEF" x="5.15560712" y="10.6" width="14.0498669" height="2.8" rx="1.4"></rect>
        </g>
    </g>
</svg>