<?xml version="1.0" encoding="UTF-8"?>
<svg width="24px" height="24px" viewBox="0 0 24 24" version="1.1" xmlns="http://www.w3.org/2000/svg" xmlns:xlink="http://www.w3.org/1999/xlink">
    <!-- Generator: Sketch 51.2 (57519) - http://www.bohemiancoding.com/sketch -->
    <title>24x24_consent-edited copy</title>
    <desc>Created with Sketch.</desc>
    <defs>
        <polygon id="path-1" points="0.3224656 0.77507145 21.9790236 0.77507145 21.9790236 22.6003124 0.3224656 22.6003124"></polygon>
    </defs>
    <g id="24x24_consent-edited-copy" stroke="none" stroke-width="1" fill="none" fill-rule="evenodd">
        <g id="Group-5-Copy-9" transform="translate(0.776173, 0.292601)">
            <mask id="mask-2" fill="white">
                <use xlink:href="#path-1"></use>
            </mask>
            <g id="Clip-4"></g>
            <path d="M20.5594083,16.2468536 L20.5501022,16.2468536 C19.8680925,16.2468536 19.2751562,16.6709493 19.1089745,17.2798391 C18.7194446,18.6917188 17.4258862,19.6768439 15.9621578,19.6768439 L6.51107212,19.6768439 C4.71099194,19.6768439 3.24726353,18.2131155 3.24726353,16.4130353 L3.24726353,6.96327913 C3.24726353,5.16319896 4.71099194,3.69947054 6.51107212,3.69947054 L15.9621578,3.69947054 C17.4258862,3.69947054 18.7194446,4.68459566 19.1089745,6.09514593 C19.2751562,6.70403568 19.8680925,7.12946083 20.5594083,7.12946083 C21.0047753,7.12946083 21.4155765,6.92472498 21.6854555,6.56976087 C21.9606524,6.20814949 22.0470669,5.749488 21.9247572,5.31076831 C21.185581,2.64122547 18.7327391,0.774672614 15.9621578,0.774672614 L6.51107212,0.774672614 C3.09836472,0.774672614 0.3224656,3.55057174 0.3224656,6.96327913 L0.3224656,16.4130353 C0.3224656,19.8244133 3.09836472,22.6003124 6.51107212,22.6003124 L15.9621578,22.6003124 C18.7327391,22.6003124 21.185581,20.735089 21.9247572,18.0642167 C22.0470669,17.625497 21.9606524,17.1668355 21.6854555,16.8052242 C21.4155765,16.45026 21.0047753,16.2468536 20.5594083,16.2468536" id="Fill-3" fill="#00ADEF" mask="url(#mask-2)"></path>
            <path d="M15.5792951,7.76672206 L15.5792351,7.76678344 L10.7162004,12.6298182 L8.55070752,10.4643253 L8.55064751,10.4642639 C8.03287067,9.9347027 7.18383543,9.92514957 6.6542742,10.4429264 C6.65067807,10.4464425 6.64710176,10.4499788 6.64354542,10.4535351 L6.64354542,10.4535351 C6.11984324,10.9772373 6.11984324,11.8263263 6.64354542,12.3500285 C6.64710176,12.3535848 6.65067807,12.3571211 6.6542742,12.3606372 L6.65433558,12.3606972 L9.76801439,15.4743761 L10.7162004,16.4441424 L11.6643863,15.4743761 L17.475607,9.66315537 L17.4756684,9.66309536 C18.0052296,9.14531853 18.0147828,8.29628328 17.4970059,7.76672206 C17.4934898,7.76312593 17.4899535,7.75954961 17.4863972,7.75599327 L17.4863972,7.75599327 C16.962695,7.23229109 16.113606,7.23229109 15.5899038,7.75599327 C15.5863475,7.75954961 15.5828112,7.76312593 15.5792951,7.76672206 Z" id="Shape-Copy-11" fill="#00ADEF" fill-rule="nonzero" mask="url(#mask-2)"></path>
        </g>
    </g>
</svg>