<?xml version="1.0" encoding="UTF-8"?>
<svg width="32px" height="32px" viewBox="0 0 32 32" version="1.1" xmlns="http://www.w3.org/2000/svg" xmlns:xlink="http://www.w3.org/1999/xlink">
    <!-- Generator: Sketch 51.2 (57519) - http://www.bohemiancoding.com/sketch -->
    <title>32x32_consent-scanning copy</title>
    <desc>Created with Sketch.</desc>
    <defs>
        <polygon id="path-1" points="0.568870088 0.595269613 32.1659816 0.595269613 32.1659816 32.1595018 0.568870088 32.1595018"></polygon>
    </defs>
    <g id="32x32_consent-scanning-copy" stroke="none" stroke-width="1" fill="none" fill-rule="evenodd">
        <g id="Group-Copy" transform="translate(-0.252686, -0.263428)">
            <g id="Group-5-Copy-27">
                <mask id="mask-2" fill="white">
                    <use xlink:href="#path-1"></use>
                </mask>
                <g id="Clip-4"></g>
                <path d="M16.3421063,30.8283316 L16.3421063,26.9456847 L22.80548,26.9456847 C24.749452,26.9456847 26.4674217,25.6373439 26.9847548,23.762232 C27.2054601,22.9535679 27.9929365,22.3903281 28.8987109,22.3903281 L28.9110704,22.3903281 C29.5025605,22.3903281 30.0481439,22.6604713 30.4065692,23.1318977 C30.7720571,23.6121524 30.8868239,24.2212989 30.7243848,24.8039608 C29.7426878,28.3511358 26.4850781,30.8283316 22.80548,30.8283316 L16.3421063,30.8283316 Z M16.3421063,1.84178535 L22.80548,1.84178535 C26.4850781,1.84178535 29.7426878,4.32074685 30.7243848,7.86615618 C30.8868239,8.44881807 30.7720571,9.05796459 30.4065692,9.53821924 C30.0481439,10.0096457 29.5025605,10.2815546 28.9110704,10.2815546 C27.9929365,10.2815546 27.2054601,9.71654909 26.9847548,8.90788501 C26.4674217,7.03453875 24.749452,5.72619796 22.80548,5.72619796 L16.3421063,5.72619796 L16.3421063,1.84178535 Z" id="Combined-Shape" fill="#00ADEF" mask="url(#mask-2)"></path>
                <path d="M1.91307643,30.8283316 L1.91307643,26.9456847 L8.37645011,26.9456847 C10.3204221,26.9456847 12.0383918,25.6373439 12.555725,23.762232 C12.7764302,22.9535679 13.5639066,22.3903281 14.469681,22.3903281 L14.4820405,22.3903281 C15.0735306,22.3903281 15.619114,22.6604713 15.9775393,23.1318977 C16.3430272,23.6121524 16.457794,24.2212989 16.2953549,24.8039608 C15.3136579,28.3511358 12.0560482,30.8283316 8.37645011,30.8283316 L1.91307643,30.8283316 Z M1.91307643,1.84178535 L8.37645011,1.84178535 C12.0560482,1.84178535 15.3136579,4.32074685 16.2953549,7.86615618 C16.457794,8.44881807 16.3430272,9.05796459 15.9775393,9.53821924 C15.619114,10.0096457 15.0735306,10.2815546 14.4820405,10.2815546 C13.5639066,10.2815546 12.7764302,9.71654909 12.555725,8.90788501 C12.0383918,7.03453875 10.3204221,5.72619796 8.37645011,5.72619796 L1.91307643,5.72619796 L1.91307643,1.84178535 Z" id="Combined-Shape-Copy" fill="#00ADEF" mask="url(#mask-2)" transform="translate(9.140251, 16.335058) scale(-1, 1) translate(-9.140251, -16.335058) "></path>
            </g>
            <rect id="Rectangle-16" fill="#00ADEF" x="6.91705588" y="14.65" width="18.8501009" height="3.7" rx="1.85"></rect>
        </g>
    </g>
</svg>