<?xml version="1.0" encoding="UTF-8"?>
<svg width="32px" height="32px" viewBox="0 0 32 32" version="1.1" xmlns="http://www.w3.org/2000/svg" xmlns:xlink="http://www.w3.org/1999/xlink">
    <!-- Generator: Sketch 51.2 (57519) - http://www.bohemiancoding.com/sketch -->
    <title>32x32_consent-review copy</title>
    <desc>Created with Sketch.</desc>
    <defs>
        <polygon id="path-1" points="0.431713805 0.0376581084 29.4253027 0.0376581084 29.4253027 29.2570781 0.431713805 29.2570781"></polygon>
    </defs>
    <g id="32x32_consent-review-copy" stroke="none" stroke-width="1" fill="none" fill-rule="evenodd">
        <g id="Group-5-Copy-8" transform="translate(1.024992, 1.314956)">
            <mask id="mask-2" fill="white">
                <use xlink:href="#path-1"></use>
            </mask>
            <g id="Clip-4"></g>
            <path d="M27.5247356,20.7511294 L27.5122766,20.7511294 C26.5992087,20.7511294 25.8053913,21.3189046 25.5829089,22.1340803 C25.06141,24.0242911 23.3296067,25.343167 21.3699814,25.343167 L8.71695994,25.343167 C6.30703013,25.343167 4.34740478,23.3835417 4.34740478,20.9736118 L4.34740478,8.32237028 C4.34740478,5.91244047 6.30703013,3.95281513 8.71695994,3.95281513 L21.3699814,3.95281513 C23.3296067,3.95281513 25.06141,5.27169104 25.5829089,7.16012201 C25.8053913,7.97529767 26.5992087,8.54485272 27.5247356,8.54485272 C28.1209886,8.54485272 28.6709652,8.27075436 29.0322767,7.79553186 C29.4007076,7.31141007 29.5163985,6.69735853 29.3526514,6.11000488 C28.3630495,2.53604694 25.0792086,0.0371241505 21.3699814,0.0371241505 L8.71695994,0.0371241505 C4.14806051,0.0371241505 0.431713805,3.75347086 0.431713805,8.32237028 L0.431713805,20.9736118 C0.431713805,25.5407314 4.14806051,29.2570781 8.71695994,29.2570781 L21.3699814,29.2570781 C25.0792086,29.2570781 28.3630495,26.7599352 29.3526514,23.1841974 C29.5163985,22.5968437 29.4007076,21.9827922 29.0322767,21.4986704 C28.6709652,21.0234479 28.1209886,20.7511294 27.5247356,20.7511294" id="Fill-3" fill="#FF7E74" mask="url(#mask-2)"></path>
        </g>
        <g id="Group-19-Copy" transform="translate(9.861812, 8.791927)" fill="#FF7E74" fill-rule="nonzero">
            <path d="M0.238247034,10.0949168 L3.30489098,13.1069764 C3.21390264,13.1930352 3.09258486,13.2393746 2.9645272,13.2393746 L0.612310197,13.2360646 C0.332605309,13.2360646 0.106819437,13.0142976 0.106819437,12.7395713 L0.106819437,10.4259123 C0.10715643,10.3067539 0.153998574,10.1842856 0.238247034,10.0949168 Z" id="Shape"></path>
            <path d="M2.47496006,8.03177741 L2.47310928,8.02992866 L9.65109113,0.897384562 C10.4345003,0.118934482 11.7000334,0.120978209 12.4809243,0.901954499 C13.2579845,1.67909981 13.2579156,2.93903239 12.4807703,3.71609268 C12.4788917,3.71797111 12.4770093,3.71984577 12.4751231,3.72171666 L11.8180783,4.37344795 C11.7933968,4.40101547 11.7678126,4.42806032 11.7413257,4.45454426 C11.7394471,4.45642269 11.7375647,4.45829736 11.7356786,4.46016825 L4.55306838,11.5846925 L1.73366471,8.76838024 L2.47496006,8.03177741 Z" id="Combined-Shape"></path>
        </g>
    </g>
</svg>