<?xml version="1.0" encoding="UTF-8"?>
<svg width="32px" height="32px" viewBox="0 0 32 32" version="1.1" xmlns="http://www.w3.org/2000/svg" xmlns:xlink="http://www.w3.org/1999/xlink">
    <!-- Generator: Sketch 51.2 (57519) - http://www.bohemiancoding.com/sketch -->
    <title>32x32_consent-edited copy</title>
    <desc>Created with Sketch.</desc>
    <defs>
        <polygon id="path-1" points="0.431713805 0.0376581084 29.4253027 0.0376581084 29.4253027 29.2570781 0.431713805 29.2570781"></polygon>
    </defs>
    <g id="32x32_consent-edited-copy" stroke="none" stroke-width="1" fill="none" fill-rule="evenodd">
        <g id="Group-5-Copy-8" transform="translate(1.024992, 1.314956)">
            <mask id="mask-2" fill="white">
                <use xlink:href="#path-1"></use>
            </mask>
            <g id="Clip-4"></g>
            <path d="M27.5247356,20.7511294 L27.5122766,20.7511294 C26.5992087,20.7511294 25.8053913,21.3189046 25.5829089,22.1340803 C25.06141,24.0242911 23.3296067,25.343167 21.3699814,25.343167 L8.71695994,25.343167 C6.30703013,25.343167 4.34740478,23.3835417 4.34740478,20.9736118 L4.34740478,8.32237028 C4.34740478,5.91244047 6.30703013,3.95281513 8.71695994,3.95281513 L21.3699814,3.95281513 C23.3296067,3.95281513 25.06141,5.27169104 25.5829089,7.16012201 C25.8053913,7.97529767 26.5992087,8.54485272 27.5247356,8.54485272 C28.1209886,8.54485272 28.6709652,8.27075436 29.0322767,7.79553186 C29.4007076,7.31141007 29.5163985,6.69735853 29.3526514,6.11000488 C28.3630495,2.53604694 25.0792086,0.0371241505 21.3699814,0.0371241505 L8.71695994,0.0371241505 C4.14806051,0.0371241505 0.431713805,3.75347086 0.431713805,8.32237028 L0.431713805,20.9736118 C0.431713805,25.5407314 4.14806051,29.2570781 8.71695994,29.2570781 L21.3699814,29.2570781 C25.0792086,29.2570781 28.3630495,26.7599352 29.3526514,23.1841974 C29.5163985,22.5968437 29.4007076,21.9827922 29.0322767,21.4986704 C28.6709652,21.0234479 28.1209886,20.7511294 27.5247356,20.7511294" id="Fill-3" fill="#00ADEF" mask="url(#mask-2)"></path>
            <path d="M20.8574085,9.39801184 L20.8573282,9.39809402 L14.3467447,15.9086775 L11.4476039,13.0095368 L11.4475236,13.0094546 C10.754329,12.3004832 9.6176489,12.2876936 8.90867749,12.9808881 C8.90386303,12.9855955 8.89907509,12.9903298 8.89431389,12.995091 L8.89431389,12.995091 C8.19318652,13.6962184 8.19318652,14.8329705 8.89431389,15.5340978 C8.89907509,15.538859 8.90386303,15.5435934 8.90867749,15.5483007 L8.90875966,15.5483811 L13.0773225,19.7169439 L14.3467447,21.0152576 L15.6161668,19.7169439 L23.3961725,11.9369383 L23.3962546,11.9368579 C24.105226,11.2436634 24.1180157,10.1069832 23.4248211,9.39801184 C23.4201138,9.39319738 23.4153794,9.38840944 23.4106182,9.38364824 L23.4106182,9.38364824 C22.7094909,8.68252087 21.5727388,8.68252087 20.8716114,9.38364824 C20.8668502,9.38840944 20.8621159,9.39319738 20.8574085,9.39801184 Z" id="Shape-Copy-11" fill="#00ADEF" fill-rule="nonzero" mask="url(#mask-2)"></path>
        </g>
    </g>
</svg>