<?xml version="1.0" encoding="UTF-8"?>
<svg width="38px" height="38px" viewBox="0 0 38 38" version="1.1" xmlns="http://www.w3.org/2000/svg" xmlns:xlink="http://www.w3.org/1999/xlink">
    <!-- Generator: Sketch 51.2 (57519) - http://www.bohemiancoding.com/sketch -->
    <title>38x38_consent-readonly-cliqz-light copy 2</title>
    <desc>Created with Sketch.</desc>
    <defs>
        <polygon id="path-1" points="0.475401621 0.142665212 32.4030328 0.142665212 32.4030328 32.3189808 0.475401621 32.3189808"></polygon>
    </defs>
    <g id="38x38_consent-readonly-cliqz-light-copy-2" stroke="none" stroke-width="1" fill="none" fill-rule="evenodd">
        <g id="Group-5-Copy-10" transform="translate(2.442383, 2.750977)">
            <mask id="mask-2" fill="white">
                <use xlink:href="#path-1"></use>
            </mask>
            <g id="Clip-4"></g>
            <path d="M30.3101355,22.952262 L30.2964157,22.952262 C29.2909487,22.952262 28.4168,23.5774939 28.1718032,24.4751623 C27.5975306,26.5566554 25.6904753,28.0089966 23.5325432,28.0089966 L9.59908354,28.0089966 C6.94527789,28.0089966 4.78734581,25.8510645 4.78734581,23.1972588 L4.78734581,9.26575914 C4.78734581,6.61195349 6.94527789,4.45402141 9.59908354,4.45402141 L23.5325432,4.45402141 C25.6904753,4.45402141 27.5975306,5.90636262 28.1718032,7.9858957 C28.4168,8.88356409 29.2909487,9.51075597 30.3101355,9.51075597 C30.966727,9.51075597 31.5723592,9.20891988 31.970234,8.68560665 C32.3759488,8.15249355 32.5033471,7.4763023 32.3230294,6.82951067 C31.2332835,2.89388161 27.6171303,0.142077219 23.5325432,0.142077219 L9.59908354,0.142077219 C4.56782866,0.142077219 0.475401621,4.23450425 0.475401621,9.26575914 L0.475401621,23.1972588 C0.475401621,28.2265537 4.56782866,32.3189808 9.59908354,32.3189808 L23.5325432,32.3189808 C27.6171303,32.3189808 31.2332835,29.5691364 32.3230294,25.6315473 C32.5033471,24.9847557 32.3759488,24.3085645 31.970234,23.7754514 C31.5723592,23.2521381 30.966727,22.952262 30.3101355,22.952262" id="Fill-3" fill="#595A5A" mask="url(#mask-2)"></path>
            <path d="M22.9680999,10.4502516 L22.9680115,10.4503421 L15.7985813,17.6197722 L12.6060585,14.4272493 L12.60597,14.4271588 C11.8426267,13.6464422 10.5909188,13.6323582 9.81020219,14.3957015 C9.80490052,14.4008852 9.79962806,14.4060987 9.79438505,14.4113417 L9.79438505,14.4113417 C9.02230622,15.1834205 9.02230622,16.4352076 9.79438505,17.2072864 C9.79962806,17.2125295 9.80490052,17.2177429 9.81020219,17.2229266 L9.81029268,17.2230151 L14.4006985,21.8134209 L15.7985813,23.243119 L17.1964642,21.8134209 L25.7637772,13.2461079 L25.7638677,13.2460194 C26.5445844,12.4826761 26.5586683,11.2309682 25.795325,10.4502516 C25.7901413,10.4449499 25.7849279,10.4396775 25.7796849,10.4344344 L25.7796849,10.4344344 C25.007606,9.66235562 23.7558189,9.66235562 22.9837401,10.4344344 C22.9784971,10.4396775 22.9732836,10.4449499 22.9680999,10.4502516 Z" id="Shape-Copy-11" fill="#595A5A" fill-rule="nonzero" mask="url(#mask-2)"></path>
        </g>
    </g>
</svg>