<?xml version="1.0" encoding="UTF-8"?>
<svg width="38px" height="38px" viewBox="0 0 38 38" version="1.1" xmlns="http://www.w3.org/2000/svg" xmlns:xlink="http://www.w3.org/1999/xlink">
    <!-- Generator: Sketch 51.2 (57519) - http://www.bohemiancoding.com/sketch -->
    <title>38x38_consent-scanning-cliqz-light copy</title>
    <desc>Created with Sketch.</desc>
    <defs>
        <polygon id="path-1" points="0.624720277 0.660832126 35.3239543 0.660832126 35.3239543 35.7015232 0.624720277 35.7015232"></polygon>
        <polygon id="path-3" points="0.475401621 0.142665212 32.4030328 0.142665212 32.4030328 32.3189808 0.475401621 32.3189808"></polygon>
    </defs>
    <g id="38x38_consent-scanning-cliqz-light-copy" stroke="none" stroke-width="1" fill="none" fill-rule="evenodd">
        <g id="Group-Copy" transform="translate(1.067993, 0.887695)">
            <g id="Group-5-Copy-27">
                <mask id="mask-2" fill="white">
                    <use xlink:href="#path-1"></use>
                </mask>
                <g id="Clip-4"></g>
                <path d="M17.9465319,34.2237391 L17.9465319,29.9134605 L25.0444629,29.9134605 C27.1792889,29.9134605 29.0659245,28.4610201 29.634048,26.3793849 C29.8764216,25.4816552 30.7412103,24.8563806 31.7359113,24.8563806 L31.7494842,24.8563806 C32.3990453,24.8563806 32.9981927,25.1562772 33.3918073,25.6796262 C33.7931779,26.2127757 33.9192121,26.8890131 33.7408252,27.5358489 C32.6627477,31.4737069 29.0853144,34.2237391 25.0444629,34.2237391 L17.9465319,34.2237391 Z M17.9465319,2.04463809 L25.0444629,2.04463809 C29.0853144,2.04463809 32.6627477,4.7966304 33.7408252,8.73252824 C33.9192121,9.37936404 33.7931779,10.0556015 33.3918073,10.588751 C32.9981927,11.1120999 32.3990453,11.4139566 31.7494842,11.4139566 C30.7412103,11.4139566 29.8764216,10.7867219 29.634048,9.88899224 C29.0659245,7.80931714 27.1792889,6.35687675 25.0444629,6.35687675 L17.9465319,6.35687675 L17.9465319,2.04463809 Z" id="Combined-Shape" fill="#00ADEF" mask="url(#mask-2)"></path>
                <path d="M2.10089731,34.2237391 L2.10089731,29.9134605 L9.19882825,29.9134605 C11.3336543,29.9134605 13.2202899,28.4610201 13.7884134,26.3793849 C14.030787,25.4816552 14.8955757,24.8563806 15.8902767,24.8563806 L15.9038496,24.8563806 C16.5534107,24.8563806 17.1525581,25.1562772 17.5461727,25.6796262 C17.9475433,26.2127757 18.0735775,26.8890131 17.8951906,27.5358489 C16.8171131,31.4737069 13.2396798,34.2237391 9.19882825,34.2237391 L2.10089731,34.2237391 Z M2.10089731,2.04463809 L9.19882825,2.04463809 C13.2396798,2.04463809 16.8171131,4.7966304 17.8951906,8.73252824 C18.0735775,9.37936404 17.9475433,10.0556015 17.5461727,10.588751 C17.1525581,11.1120999 16.5534107,11.4139566 15.9038496,11.4139566 C14.8955757,11.4139566 14.030787,10.7867219 13.7884134,9.88899224 C13.2202899,7.80931714 11.3336543,6.35687675 9.19882825,6.35687675 L2.10089731,6.35687675 L2.10089731,2.04463809 Z" id="Combined-Shape-Copy" fill="#00ADEF" mask="url(#mask-2)" transform="translate(10.037617, 18.134189) scale(-1, 1) translate(-10.037617, -18.134189) "></path>
            </g>
            <rect id="Rectangle-16" fill="#00ADEF" x="7.59615448" y="16.2635391" width="20.7007549" height="4.107515" rx="1.95621441"></rect>
        </g>
        <g id="Group-5-Copy-10" transform="translate(2.442383, 2.750977)">
            <mask id="mask-4" fill="white">
                <use xlink:href="#path-3"></use>
            </mask>
            <g id="Clip-4"></g>
        </g>
    </g>
</svg>