<?xml version="1.0" encoding="UTF-8"?>
<svg width="38px" height="38px" viewBox="0 0 38 38" version="1.1" xmlns="http://www.w3.org/2000/svg" xmlns:xlink="http://www.w3.org/1999/xlink">
    <!-- Generator: Sketch 51.2 (57519) - http://www.bohemiancoding.com/sketch -->
    <title>38x38_consent-review-cliqz-light copy</title>
    <desc>Created with Sketch.</desc>
    <defs>
        <polygon id="path-1" points="0.475401621 0.142665212 32.4030328 0.142665212 32.4030328 32.3189808 0.475401621 32.3189808"></polygon>
    </defs>
    <g id="38x38_consent-review-cliqz-light-copy" stroke="none" stroke-width="1" fill="none" fill-rule="evenodd">
        <g id="Group" transform="translate(2.000000, 2.000000)">
            <g id="Group-5-Copy-10" transform="translate(0.442383, 0.750977)">
                <mask id="mask-2" fill="white">
                    <use xlink:href="#path-1"></use>
                </mask>
                <g id="Clip-4"></g>
                <path d="M30.3101355,22.952262 L30.2964157,22.952262 C29.2909487,22.952262 28.4168,23.5774939 28.1718032,24.4751623 C27.5975306,26.5566554 25.6904753,28.0089966 23.5325432,28.0089966 L9.59908354,28.0089966 C6.94527789,28.0089966 4.78734581,25.8510645 4.78734581,23.1972588 L4.78734581,9.26575914 C4.78734581,6.61195349 6.94527789,4.45402141 9.59908354,4.45402141 L23.5325432,4.45402141 C25.6904753,4.45402141 27.5975306,5.90636262 28.1718032,7.9858957 C28.4168,8.88356409 29.2909487,9.51075597 30.3101355,9.51075597 C30.966727,9.51075597 31.5723592,9.20891988 31.970234,8.68560665 C32.3759488,8.15249355 32.5033471,7.4763023 32.3230294,6.82951067 C31.2332835,2.89388161 27.6171303,0.142077219 23.5325432,0.142077219 L9.59908354,0.142077219 C4.56782866,0.142077219 0.475401621,4.23450425 0.475401621,9.26575914 L0.475401621,23.1972588 C0.475401621,28.2265537 4.56782866,32.3189808 9.59908354,32.3189808 L23.5325432,32.3189808 C27.6171303,32.3189808 31.2332835,29.5691364 32.3230294,25.6315473 C32.5033471,24.9847557 32.3759488,24.3085645 31.970234,23.7754514 C31.5723592,23.2521381 30.966727,22.952262 30.3101355,22.952262" id="Fill-3" fill="#FF7E74" mask="url(#mask-2)"></path>
            </g>
            <g id="Group-19-Copy" transform="translate(9.521221, 8.649990)" fill="#FF7E74" fill-rule="nonzero">
                <path d="M0.410731324,11.7877828 L3.99163582,15.3049494 C3.8853892,15.4054399 3.74372704,15.4595502 3.59419477,15.4595502 L0.847522971,15.4556852 C0.520913001,15.4556852 0.257263989,15.1967289 0.257263989,14.8759324 L0.257263989,12.1742847 C0.257657495,12.035144 0.312354827,11.8921383 0.410731324,11.7877828 Z" id="Shape"></path>
                <path d="M3.02252972,9.37866551 L3.02036857,9.37650673 L11.4020614,1.04787138 C12.3168443,0.138879188 13.7946008,0.141265637 14.7064431,1.05320767 C15.6138124,1.96067629 15.6137319,3.43189313 14.7062633,4.33926246 C14.7040696,4.3414559 14.7018716,4.34364493 14.6996691,4.34582956 L13.9324412,5.10685286 C13.9036207,5.13904331 13.8737462,5.17062345 13.8428176,5.20154861 C13.840624,5.20374205 13.8384259,5.20593108 13.8362235,5.20811571 L5.4491262,13.5273863 L2.15692291,10.2387929 L3.02252972,9.37866551 Z" id="Combined-Shape"></path>
            </g>
        </g>
    </g>
</svg>